{"asset":{"version":"2.0","generator":"VECTARY"},"scene":0,"extensionsUsed":["KHR_texture_transform","KHR_lights_punctual"],"extensionsRequired":["KHR_lights_punctual"],"nodes":[{"translation":[-0.127978515625,0,0],"scale":[0.001,0.001,0.001],"rotation":[-0.7071067811865475,0,0,0.7071067811865476],"name":"B","mesh":0},{"translation":[-0.0731787109375,0,0],"scale":[0.001,0.001,0.001],"rotation":[-0.7071067811865475,0,0,0.7071067811865476],"name":"O","mesh":1},{"translation":[-0.007919921875,0,0],"scale":[0.001,0.001,0.001],"rotation":[-0.7071067811865475,0,0,0.7071067811865476],"name":"P","mesh":2},{"translation":[0.043671875,0,0],"scale":[0.001,0.001,0.001],"rotation":[-0.7071067811865475,0,0,0.7071067811865476],"name":"P","mesh":3},{"translation":[0.095263671875,0,0],"scale":[0.001,0.001,0.001],"rotation":[-0.7071067811865475,0,0,0.7071067811865476],"name":"!","mesh":4},{"translation":[-0.020561074815548537,0.11156275714221715,0.9956967967412561],"scale":[1,1,1],"rotation":[-0.06856753779030861,0.04454600926785279,0.0030646868207735434,0.9966467546299308],"name":"Camera","camera":0}],"materials":[{"pbrMetallicRoughness":{"baseColorFactor":[0.3111804990579844,0.7742273142184415,0.7518950805830509,1],"metallicFactor":0,"roughnessFactor":0.2},"name":"3D Text material","emissiveFactor":[0,0,0],"alphaMode":"OPAQUE","doubleSided":false}],"meshes":[{"primitives":[{"mode":4,"attributes":{"POSITION":1,"NORMAL":2,"TEXCOORD_0":3},"material":0,"indices":0}]},{"primitives":[{"mode":4,"attributes":{"POSITION":5,"NORMAL":6,"TEXCOORD_0":7},"material":0,"indices":4}]},{"primitives":[{"mode":4,"attributes":{"POSITION":9,"NORMAL":10,"TEXCOORD_0":11},"material":0,"indices":8}]},{"primitives":[{"mode":4,"attributes":{"POSITION":9,"NORMAL":10,"TEXCOORD_0":11},"material":0,"indices":8}]},{"primitives":[{"mode":4,"attributes":{"POSITION":13,"NORMAL":14,"TEXCOORD_0":15},"material":0,"indices":12}]}],"accessors":[{"bufferView":0,"byteOffset":0,"componentType":5125,"count":1032,"type":"SCALAR"},{"bufferView":1,"byteOffset":0,"componentType":5126,"count":1032,"max":[59.912109375,4.37117578122744e-15,71.38671875],"min":[3.41796875,-25,0],"type":"VEC3"},{"bufferView":2,"byteOffset":0,"componentType":5126,"count":1032,"type":"VEC3"},{"bufferView":3,"byteOffset":0,"componentType":5126,"count":1032,"type":"VEC2"},{"bufferView":4,"byteOffset":0,"componentType":5125,"count":1200,"type":"SCALAR"},{"bufferView":5,"byteOffset":0,"componentType":5126,"count":1200,"max":[69.384765625,4.439942574566754e-15,72.509765625],"min":[6.591796875,-25,-0.9765625],"type":"VEC3"},{"bufferView":6,"byteOffset":0,"componentType":5126,"count":1200,"type":"VEC3"},{"bufferView":7,"byteOffset":0,"componentType":5126,"count":1200,"type":"VEC2"},{"bufferView":8,"byteOffset":0,"componentType":5125,"count":576,"type":"SCALAR"},{"bufferView":9,"byteOffset":0,"componentType":5126,"count":576,"max":[57.32421875,4.37117578122744e-15,71.38671875],"min":[3.41796875,-25,0],"type":"VEC3"},{"bufferView":10,"byteOffset":0,"componentType":5126,"count":576,"type":"VEC3"},{"bufferView":11,"byteOffset":0,"componentType":5126,"count":576,"type":"VEC2"},{"bufferView":12,"byteOffset":0,"componentType":5125,"count":504,"type":"SCALAR"},{"bufferView":13,"byteOffset":0,"componentType":5126,"count":504,"max":[29.296875,4.37117578122744e-15,71.38671875],"min":[1.611328125,-25,-1.318359375],"type":"VEC3"},{"bufferView":14,"byteOffset":0,"componentType":5126,"count":504,"type":"VEC3"},{"bufferView":15,"byteOffset":0,"componentType":5126,"count":504,"type":"VEC2"}],"bufferViews":[{"buffer":0,"byteOffset":0,"byteLength":4128,"target":34963},{"buffer":0,"byteOffset":4128,"byteLength":12384,"target":34962},{"buffer":0,"byteOffset":16512,"byteLength":12384,"target":34962},{"buffer":0,"byteOffset":28896,"byteLength":8256,"target":34962},{"buffer":0,"byteOffset":37152,"byteLength":4800,"target":34963},{"buffer":0,"byteOffset":41952,"byteLength":14400,"target":34962},{"buffer":0,"byteOffset":56352,"byteLength":14400,"target":34962},{"buffer":0,"byteOffset":70752,"byteLength":9600,"target":34962},{"buffer":0,"byteOffset":80352,"byteLength":2304,"target":34963},{"buffer":0,"byteOffset":82656,"byteLength":6912,"target":34962},{"buffer":0,"byteOffset":89568,"byteLength":6912,"target":34962},{"buffer":0,"byteOffset":96480,"byteLength":4608,"target":34962},{"buffer":0,"byteOffset":101088,"byteLength":2016,"target":34963},{"buffer":0,"byteOffset":103104,"byteLength":6048,"target":34962},{"buffer":0,"byteOffset":109152,"byteLength":6048,"target":34962},{"buffer":0,"byteOffset":115200,"byteLength":4032,"target":34962}],"cameras":[{"name":"Camera","type":"perspective","extras":{"targetDistance":0.9958439120661758},"perspective":{"aspectRatio":1.5678191489361701,"yfov":0.6108652381980153,"zfar":57.80784944345903,"znear":0.004880279284986584}}],"scenes":[{"nodes":[0,1,2,3,4,5],"name":"Bopp_italic"}],"buffers":[{"byteLength":119232,"uri":"Bopp_italic.bin"}]}