{"asset":{"version":"2.0","generator":"VECTARY"},"scene":0,"extensionsUsed":["KHR_texture_transform","KHR_lights_punctual"],"extensionsRequired":["KHR_lights_punctual"],"nodes":[{"translation":[-0.03668022589524654,0.04927145237016099,0.15025956077459615],"scale":[0.00045089344637594853,0.00045089344637594853,0.00045089344637594853],"rotation":[-0.9999884041805709,0,0,-0.0048157558487506025],"name":"T","mesh":0},{"translation":[-0.014230223587162808,0.04927145237016099,0.15025956077459615],"scale":[0.00045089344637594853,0.00045089344637594853,0.00045089344637594853],"rotation":[-0.9999884041805709,0,0,-0.0048157558487506025],"name":"A","mesh":1},{"translation":[0.011449567225967384,0.04927145237016099,0.15025956077459615],"scale":[0.00045089344637594853,0.00045089344637594853,0.00045089344637594853],"rotation":[-0.9999884041805709,0,0,-0.0048157558487506025],"name":"P","mesh":2},{"translation":[0,0.02733098726287456,0.1309497655936772],"scale":[0.001,0.001,0.001],"rotation":[-0.7071067811865475,0,0,0.7071067811865476],"name":"CirclePlane","mesh":3},{"translation":[-0.12522629075933484,0.001978509577901491,0.0506278767017551],"scale":[0.0010595692680085017,0.0010595692680085017,0.0010595692680085017],"rotation":[-0.9999970265384085,0,0,0.002438629603148501],"name":"£","mesh":4},{"translation":[-0.07079402382223794,0.001978509577901491,0.0506278767017551],"scale":[0.0010595692680085017,0.0010595692680085017,0.0010595692680085017],"rotation":[-0.9999970265384085,0,0,0.002438629603148501],"name":"4","mesh":5},{"translation":[-0.016361756885141042,0.001978509577901491,0.0506278767017551],"scale":[0.0010595692680085017,0.0010595692680085017,0.0010595692680085017],"rotation":[-0.9999970265384085,0,0,0.002438629603148501],"name":".","mesh":6},{"translation":[0.010831095032108388,0.001978509577901491,0.0506278767017551],"scale":[0.0010595692680085017,0.0010595692680085017,0.0010595692680085017],"rotation":[-0.9999970265384085,0,0,0.002438629603148501],"name":"9","mesh":7},{"translation":[0.06526336196920529,0.001978509577901491,0.0506278767017551],"scale":[0.0010595692680085017,0.0010595692680085017,0.0010595692680085017],"rotation":[-0.9999970265384085,0,0,0.002438629603148501],"name":"5","mesh":8},{"translation":[-0.13818117515993716,2.1316282072803006e-17,-0.06197622493746546],"scale":[0.0010797216586323972,0.0010797216586323972,0.0010797216586323972],"rotation":[-1,0,0,2.220446049250313e-16],"name":"B","mesh":9},{"translation":[-0.07901263915001824,2.1316282072803006e-17,-0.06197622493746546],"scale":[0.0010797216586323972,0.0010797216586323972,0.0010797216586323972],"rotation":[-1,0,0,2.220446049250313e-16],"name":"O","mesh":10},{"translation":[-0.008551311183114006,2.1316282072803006e-17,-0.06197622493746546],"scale":[0.0010797216586323972,0.0010797216586323972,0.0010797216586323972],"rotation":[-1,0,0,2.220446049250313e-16],"name":"P","mesh":11},{"translation":[0.047153469310586726,2.1316282072803006e-17,-0.06197622493746546],"scale":[0.0010797216586323972,0.0010797216586323972,0.0010797216586323972],"rotation":[-1,0,0,2.220446049250313e-16],"name":"P","mesh":12},{"translation":[0.10285824980428745,2.1316282072803006e-17,-0.06197622493746546],"scale":[0.0010797216586323972,0.0010797216586323972,0.0010797216586323972],"rotation":[-1,0,0,2.220446049250313e-16],"name":"!","mesh":13},{"translation":[0.015215287246657284,1.0318162842785243,-0.006933521931743144],"scale":[1,1,1],"rotation":[-0.7071067811865475,5.551115123125783e-17,0,0.7071067811865475],"name":"Camera","camera":0}],"materials":[{"pbrMetallicRoughness":{"baseColorFactor":[1,1,1,1],"metallicFactor":0,"roughnessFactor":0.2},"name":"3D Text material 2","emissiveFactor":[0,0,0],"alphaMode":"OPAQUE","doubleSided":false},{"pbrMetallicRoughness":{"baseColorFactor":[0.18014428915439032,0.7518950805830509,0.11657577617857154,1],"metallicFactor":0,"roughnessFactor":0.2},"name":"CirclePlane material","emissiveFactor":[0,0,0],"alphaMode":"OPAQUE","doubleSided":false},{"pbrMetallicRoughness":{"baseColorFactor":[0.8512516451845149,0.01991783843878572,0.45907989242416014,1],"metallicFactor":0,"roughnessFactor":0.2},"name":"3D Text material 1","emissiveFactor":[0,0,0],"alphaMode":"OPAQUE","doubleSided":false},{"pbrMetallicRoughness":{"baseColorFactor":[0.3111804990579844,0.7742273142184415,0.7518950805830509,1],"metallicFactor":0,"roughnessFactor":0.2},"name":"3D Text material","emissiveFactor":[0,0,0],"alphaMode":"OPAQUE","doubleSided":false}],"meshes":[{"primitives":[{"mode":4,"attributes":{"POSITION":1,"NORMAL":2,"TEXCOORD_0":3},"material":0,"indices":0}]},{"primitives":[{"mode":4,"attributes":{"POSITION":5,"NORMAL":6,"TEXCOORD_0":7},"material":0,"indices":4}]},{"primitives":[{"mode":4,"attributes":{"POSITION":9,"NORMAL":10,"TEXCOORD_0":11},"material":0,"indices":8}]},{"primitives":[{"mode":4,"attributes":{"POSITION":13,"NORMAL":14,"TEXCOORD_0":15},"material":1,"indices":12}]},{"primitives":[{"mode":4,"attributes":{"POSITION":17,"NORMAL":18,"TEXCOORD_0":19},"material":2,"indices":16}]},{"primitives":[{"mode":4,"attributes":{"POSITION":21,"NORMAL":22,"TEXCOORD_0":23},"material":2,"indices":20}]},{"primitives":[{"mode":4,"attributes":{"POSITION":25,"NORMAL":26,"TEXCOORD_0":27},"material":2,"indices":24}]},{"primitives":[{"mode":4,"attributes":{"POSITION":29,"NORMAL":30,"TEXCOORD_0":31},"material":2,"indices":28}]},{"primitives":[{"mode":4,"attributes":{"POSITION":33,"NORMAL":34,"TEXCOORD_0":35},"material":2,"indices":32}]},{"primitives":[{"mode":4,"attributes":{"POSITION":37,"NORMAL":38,"TEXCOORD_0":39},"material":3,"indices":36}]},{"primitives":[{"mode":4,"attributes":{"POSITION":41,"NORMAL":42,"TEXCOORD_0":43},"material":3,"indices":40}]},{"primitives":[{"mode":4,"attributes":{"POSITION":45,"NORMAL":46,"TEXCOORD_0":47},"material":3,"indices":44}]},{"primitives":[{"mode":4,"attributes":{"POSITION":45,"NORMAL":46,"TEXCOORD_0":47},"material":3,"indices":44}]},{"primitives":[{"mode":4,"attributes":{"POSITION":49,"NORMAL":50,"TEXCOORD_0":51},"material":3,"indices":48}]}],"accessors":[{"bufferView":0,"byteOffset":0,"componentType":5125,"count":84,"type":"SCALAR"},{"bufferView":1,"byteOffset":0,"componentType":5126,"count":84,"max":[54.39453125,4.37117578122744e-15,71.38671875],"min":[0.87890625,-25,0],"type":"VEC3"},{"bufferView":2,"byteOffset":0,"componentType":5126,"count":84,"type":"VEC3"},{"bufferView":3,"byteOffset":0,"componentType":5126,"count":84,"type":"VEC2"},{"bufferView":4,"byteOffset":0,"componentType":5125,"count":252,"type":"SCALAR"},{"bufferView":5,"byteOffset":0,"componentType":5126,"count":252,"max":[63.28125,4.389115092017339e-15,71.6796875],"min":[0,-25,0],"type":"VEC3"},{"bufferView":6,"byteOffset":0,"componentType":5126,"count":252,"type":"VEC3"},{"bufferView":7,"byteOffset":0,"componentType":5126,"count":252,"type":"VEC2"},{"bufferView":8,"byteOffset":0,"componentType":5125,"count":516,"type":"SCALAR"},{"bufferView":9,"byteOffset":0,"componentType":5126,"count":516,"max":[55.078125,4.37117578122744e-15,71.38671875],"min":[9.814453125,-25,0],"type":"VEC3"},{"bufferView":10,"byteOffset":0,"componentType":5126,"count":516,"type":"VEC3"},{"bufferView":11,"byteOffset":0,"componentType":5126,"count":516,"type":"VEC2"},{"bufferView":12,"byteOffset":0,"componentType":5125,"count":30,"type":"SCALAR"},{"bufferView":13,"byteOffset":0,"componentType":5126,"count":30,"max":[50,47.552825927734375,0],"min":[-50,-47.552825927734375,0],"type":"VEC3"},{"bufferView":14,"byteOffset":0,"componentType":5126,"count":30,"type":"VEC3"},{"bufferView":15,"byteOffset":0,"componentType":5126,"count":30,"type":"VEC2"},{"bufferView":16,"byteOffset":0,"componentType":5125,"count":708,"type":"SCALAR"},{"bufferView":17,"byteOffset":0,"componentType":5126,"count":708,"max":[55.17578125,4.433962945475612e-15,72.412109375],"min":[4.00390625,-25,0],"type":"VEC3"},{"bufferView":18,"byteOffset":0,"componentType":5126,"count":708,"type":"VEC3"},{"bufferView":19,"byteOffset":0,"componentType":5126,"count":708,"type":"VEC2"},{"bufferView":20,"byteOffset":0,"componentType":5125,"count":360,"type":"SCALAR"},{"bufferView":21,"byteOffset":0,"componentType":5126,"count":360,"max":[55.517578125,4.37117578122744e-15,71.38671875],"min":[1.708984375,-25,0],"type":"VEC3"},{"bufferView":22,"byteOffset":0,"componentType":5126,"count":360,"type":"VEC3"},{"bufferView":23,"byteOffset":0,"componentType":5126,"count":360,"type":"VEC2"},{"bufferView":24,"byteOffset":0,"componentType":5125,"count":468,"type":"SCALAR"},{"bufferView":25,"byteOffset":0,"componentType":5126,"count":468,"max":[22.802734375,9.358262464446662e-16,15.283203125],"min":[5.712890625,-25,-1.318359375],"type":"VEC3"},{"bufferView":26,"byteOffset":0,"componentType":5126,"count":468,"type":"VEC3"},{"bufferView":27,"byteOffset":0,"componentType":5126,"count":468,"type":"VEC2"},{"bufferView":28,"byteOffset":0,"componentType":5125,"count":1464,"type":"SCALAR"},{"bufferView":29,"byteOffset":0,"componentType":5126,"count":1464,"max":[53.61328125,4.422003263776855e-15,72.216796875],"min":[3.22265625,-25,-0.9765625],"type":"VEC3"},{"bufferView":30,"byteOffset":0,"componentType":5126,"count":1464,"type":"VEC3"},{"bufferView":31,"byteOffset":0,"componentType":5126,"count":1464,"type":"VEC2"},{"bufferView":32,"byteOffset":0,"componentType":5125,"count":804,"type":"SCALAR"},{"bufferView":33,"byteOffset":0,"componentType":5126,"count":804,"max":[52.587890625,4.37117578122744e-15,71.38671875],"min":[4.8828125,-25,-0.9765625],"type":"VEC3"},{"bufferView":34,"byteOffset":0,"componentType":5126,"count":804,"type":"VEC3"},{"bufferView":35,"byteOffset":0,"componentType":5126,"count":804,"type":"VEC2"},{"bufferView":36,"byteOffset":0,"componentType":5125,"count":1032,"type":"SCALAR"},{"bufferView":37,"byteOffset":0,"componentType":5126,"count":1032,"max":[59.912109375,4.37117578122744e-15,71.38671875],"min":[3.41796875,-25,0],"type":"VEC3"},{"bufferView":38,"byteOffset":0,"componentType":5126,"count":1032,"type":"VEC3"},{"bufferView":39,"byteOffset":0,"componentType":5126,"count":1032,"type":"VEC2"},{"bufferView":40,"byteOffset":0,"componentType":5125,"count":1200,"type":"SCALAR"},{"bufferView":41,"byteOffset":0,"componentType":5126,"count":1200,"max":[69.384765625,4.439942574566754e-15,72.509765625],"min":[6.591796875,-25,-0.9765625],"type":"VEC3"},{"bufferView":42,"byteOffset":0,"componentType":5126,"count":1200,"type":"VEC3"},{"bufferView":43,"byteOffset":0,"componentType":5126,"count":1200,"type":"VEC2"},{"bufferView":44,"byteOffset":0,"componentType":5125,"count":576,"type":"SCALAR"},{"bufferView":45,"byteOffset":0,"componentType":5126,"count":576,"max":[57.32421875,4.37117578122744e-15,71.38671875],"min":[3.41796875,-25,0],"type":"VEC3"},{"bufferView":46,"byteOffset":0,"componentType":5126,"count":576,"type":"VEC3"},{"bufferView":47,"byteOffset":0,"componentType":5126,"count":576,"type":"VEC2"},{"bufferView":48,"byteOffset":0,"componentType":5125,"count":504,"type":"SCALAR"},{"bufferView":49,"byteOffset":0,"componentType":5126,"count":504,"max":[29.296875,4.37117578122744e-15,71.38671875],"min":[1.611328125,-25,-1.318359375],"type":"VEC3"},{"bufferView":50,"byteOffset":0,"componentType":5126,"count":504,"type":"VEC3"},{"bufferView":51,"byteOffset":0,"componentType":5126,"count":504,"type":"VEC2"}],"bufferViews":[{"buffer":0,"byteOffset":0,"byteLength":336,"target":34963},{"buffer":0,"byteOffset":336,"byteLength":1008,"target":34962},{"buffer":0,"byteOffset":1344,"byteLength":1008,"target":34962},{"buffer":0,"byteOffset":2352,"byteLength":672,"target":34962},{"buffer":0,"byteOffset":3024,"byteLength":1008,"target":34963},{"buffer":0,"byteOffset":4032,"byteLength":3024,"target":34962},{"buffer":0,"byteOffset":7056,"byteLength":3024,"target":34962},{"buffer":0,"byteOffset":10080,"byteLength":2016,"target":34962},{"buffer":0,"byteOffset":12096,"byteLength":2064,"target":34963},{"buffer":0,"byteOffset":14160,"byteLength":6192,"target":34962},{"buffer":0,"byteOffset":20352,"byteLength":6192,"target":34962},{"buffer":0,"byteOffset":26544,"byteLength":4128,"target":34962},{"buffer":0,"byteOffset":30672,"byteLength":120,"target":34963},{"buffer":0,"byteOffset":30792,"byteLength":360,"target":34962},{"buffer":0,"byteOffset":31152,"byteLength":360,"target":34962},{"buffer":0,"byteOffset":31512,"byteLength":240,"target":34962},{"buffer":0,"byteOffset":31752,"byteLength":2832,"target":34963},{"buffer":0,"byteOffset":34584,"byteLength":8496,"target":34962},{"buffer":0,"byteOffset":43080,"byteLength":8496,"target":34962},{"buffer":0,"byteOffset":51576,"byteLength":5664,"target":34962},{"buffer":0,"byteOffset":57240,"byteLength":1440,"target":34963},{"buffer":0,"byteOffset":58680,"byteLength":4320,"target":34962},{"buffer":0,"byteOffset":63000,"byteLength":4320,"target":34962},{"buffer":0,"byteOffset":67320,"byteLength":2880,"target":34962},{"buffer":0,"byteOffset":70200,"byteLength":1872,"target":34963},{"buffer":0,"byteOffset":72072,"byteLength":5616,"target":34962},{"buffer":0,"byteOffset":77688,"byteLength":5616,"target":34962},{"buffer":0,"byteOffset":83304,"byteLength":3744,"target":34962},{"buffer":0,"byteOffset":87048,"byteLength":5856,"target":34963},{"buffer":0,"byteOffset":92904,"byteLength":17568,"target":34962},{"buffer":0,"byteOffset":110472,"byteLength":17568,"target":34962},{"buffer":0,"byteOffset":128040,"byteLength":11712,"target":34962},{"buffer":0,"byteOffset":139752,"byteLength":3216,"target":34963},{"buffer":0,"byteOffset":142968,"byteLength":9648,"target":34962},{"buffer":0,"byteOffset":152616,"byteLength":9648,"target":34962},{"buffer":0,"byteOffset":162264,"byteLength":6432,"target":34962},{"buffer":0,"byteOffset":168696,"byteLength":4128,"target":34963},{"buffer":0,"byteOffset":172824,"byteLength":12384,"target":34962},{"buffer":0,"byteOffset":185208,"byteLength":12384,"target":34962},{"buffer":0,"byteOffset":197592,"byteLength":8256,"target":34962},{"buffer":0,"byteOffset":205848,"byteLength":4800,"target":34963},{"buffer":0,"byteOffset":210648,"byteLength":14400,"target":34962},{"buffer":0,"byteOffset":225048,"byteLength":14400,"target":34962},{"buffer":0,"byteOffset":239448,"byteLength":9600,"target":34962},{"buffer":0,"byteOffset":249048,"byteLength":2304,"target":34963},{"buffer":0,"byteOffset":251352,"byteLength":6912,"target":34962},{"buffer":0,"byteOffset":258264,"byteLength":6912,"target":34962},{"buffer":0,"byteOffset":265176,"byteLength":4608,"target":34962},{"buffer":0,"byteOffset":269784,"byteLength":2016,"target":34963},{"buffer":0,"byteOffset":271800,"byteLength":6048,"target":34962},{"buffer":0,"byteOffset":277848,"byteLength":6048,"target":34962},{"buffer":0,"byteOffset":283896,"byteLength":4032,"target":34962}],"cameras":[{"name":"Camera","type":"orthographic","extras":{"targetDistance":0.9386604860520763},"orthographic":{"xmag":0.9280188523991938,"ymag":0.5919170288415553,"zfar":55.63466193617252,"znear":0.004657241619765074}}],"scenes":[{"nodes":[0,1,2,3,4,5,6,7,8,9,10,11,12,13,14],"name":"Bopp_i"}],"buffers":[{"byteLength":287928,"uri":"Bopp_i.bin"}]}